HIERARCHY
ROOT hip
{
  OFFSET 0 90.174 2.4664
  CHANNELS 6 Xposition Yposition Zposition Zrotation Xrotation Yrotation
  JOINT abdomen
  {
    OFFSET 0 -1.186 -1.5018
    CHANNELS 6 Xposition Yposition Zposition Zrotation Xrotation Yrotation
    JOINT abdomen2
    {
      OFFSET 0 9.964 0.2134
      CHANNELS 6 Xposition Yposition Zposition Zrotation Xrotation Yrotation
      JOINT chest
      {
        OFFSET 0 13.134 -3.2573
        CHANNELS 6 Xposition Yposition Zposition Zrotation Xrotation Yrotation
        JOINT neck
        {
          OFFSET 0 20.686 -1.6905
          CHANNELS 6 Xposition Yposition Zposition Zrotation Xrotation Yrotation
          JOINT head
          {
            OFFSET 0 7.238 -0.1237
            CHANNELS 6 Xposition Yposition Zposition Zrotation Xrotation Yrotation
            End Site
            {
              OFFSET 0 0 0
            }
          }
        }
        JOINT lCollar
        {
          OFFSET 1.7069 20.075 5.0056
          CHANNELS 6 Xposition Yposition Zposition Zrotation Xrotation Yrotation
          JOINT lShldr
          {
            OFFSET 13.6458 -0.047 -4.849
            CHANNELS 6 Xposition Yposition Zposition Zrotation Xrotation Yrotation
            JOINT lForeArm
            {
              OFFSET 28.3255 -0.9759 2.2888
              CHANNELS 6 Xposition Yposition Zposition Zrotation Xrotation Yrotation
              JOINT lHand
              {
                OFFSET 22.1583 -0.53 10.8316
                CHANNELS 6 Xposition Yposition Zposition Zrotation Xrotation Yrotation
                JOINT lThumb1
                {
                  OFFSET 0.786 0.112 2.5817
                  CHANNELS 6 Xposition Yposition Zposition Zrotation Xrotation Yrotation
                  JOINT lThumb2
                  {
                    OFFSET 0.3601 -0.878 4.2331
                    CHANNELS 6 Xposition Yposition Zposition Zrotation Xrotation Yrotation
                    JOINT lThumb2_End
                    {
                      OFFSET 1.8127 -1.216 2.2227
                      CHANNELS 6 Xposition Yposition Zposition Zrotation Xrotation Yrotation
                      End Site
                      {
                        OFFSET 0.0181 -0.0122 0.0222
                      }
                    }
                  }
                }
                JOINT lCarpal1
                {
                  OFFSET 0.9571 1.114 1.7695
                  CHANNELS 6 Xposition Yposition Zposition Zrotation Xrotation Yrotation
                  JOINT lIndex1
                  {
                    OFFSET 4.1246 0.487 4.1451
                    CHANNELS 6 Xposition Yposition Zposition Zrotation Xrotation Yrotation
                    JOINT lIndex2
                    {
                      OFFSET 3.4052 -1.454 2.7682
                      CHANNELS 6 Xposition Yposition Zposition Zrotation Xrotation Yrotation
                      JOINT lIndex2_End
                      {
                        OFFSET 1.4531 -1.795 1.2713
                        CHANNELS 6 Xposition Yposition Zposition Zrotation Xrotation Yrotation
                        End Site
                        {
                          OFFSET 0.0145 -0.0179 0.0127
                        }
                      }
                    }
                  }
                  JOINT lMid1
                  {
                    OFFSET 5.6954 0.21 2.1184
                    CHANNELS 6 Xposition Yposition Zposition Zrotation Xrotation Yrotation
                    JOINT lMid2
                    {
                      OFFSET 3.9766 -1.54 2.3863
                      CHANNELS 6 Xposition Yposition Zposition Zrotation Xrotation Yrotation
                      JOINT lMid2_End
                      {
                        OFFSET 1.4042 -1.926 1.125
                        CHANNELS 6 Xposition Yposition Zposition Zrotation Xrotation Yrotation
                        End Site
                        {
                          OFFSET 0.014 -0.0193 0.0113
                        }
                      }
                    }
                  }
                }
                JOINT lCarpal2
                {
                  OFFSET 2.0956 0.66 -0.3894
                  CHANNELS 6 Xposition Yposition Zposition Zrotation Xrotation Yrotation
                  JOINT lRing1
                  {
                    OFFSET 5.0395 -0.09 2.4971
                    CHANNELS 6 Xposition Yposition Zposition Zrotation Xrotation Yrotation
                    JOINT lRing2
                    {
                      OFFSET 3.7921 -1.552 1.4806
                      CHANNELS 6 Xposition Yposition Zposition Zrotation Xrotation Yrotation
                      JOINT lRing2_End
                      {
                        OFFSET 1.4655 -1.808 0.9609
                        CHANNELS 6 Xposition Yposition Zposition Zrotation Xrotation Yrotation
                        End Site
                        {
                          OFFSET 0.0147 -0.0181 0.0096
                        }
                      }
                    }
                  }
                  JOINT lPinky1
                  {
                    OFFSET 4.9141 -1.269 0.3591
                    CHANNELS 6 Xposition Yposition Zposition Zrotation Xrotation Yrotation
                    JOINT lPinky2
                    {
                      OFFSET 3.1477 -1.685 0.8462
                      CHANNELS 6 Xposition Yposition Zposition Zrotation Xrotation Yrotation
                      JOINT lPinky2_End
                      {
                        OFFSET 0.8055 -1.585 0.7955
                        CHANNELS 6 Xposition Yposition Zposition Zrotation Xrotation Yrotation
                        End Site
                        {
                          OFFSET 0.0081 -0.0158 0.008
                        }
                      }
                    }
                  }
                }
              }
            }
          }
        }
        JOINT rCollar
        {
          OFFSET -1.7069 20.075 5.0056
          CHANNELS 6 Xposition Yposition Zposition Zrotation Xrotation Yrotation
          JOINT rShldr
          {
            OFFSET -13.6458 -0.047 -4.849
            CHANNELS 6 Xposition Yposition Zposition Zrotation Xrotation Yrotation
            JOINT rForeArm
            {
              OFFSET -28.3255 -0.9759 2.2888
              CHANNELS 6 Xposition Yposition Zposition Zrotation Xrotation Yrotation
              JOINT rHand
              {
                OFFSET -22.1583 -0.53 10.8316
                CHANNELS 6 Xposition Yposition Zposition Zrotation Xrotation Yrotation
                JOINT rThumb1
                {
                  OFFSET -0.786 0.112 2.5817
                  CHANNELS 6 Xposition Yposition Zposition Zrotation Xrotation Yrotation
                  JOINT rThumb2
                  {
                    OFFSET -0.3601 -0.878 4.2331
                    CHANNELS 6 Xposition Yposition Zposition Zrotation Xrotation Yrotation
                    JOINT rThumb2_End
                    {
                      OFFSET -1.8127 -1.216 2.2227
                      CHANNELS 6 Xposition Yposition Zposition Zrotation Xrotation Yrotation
                      End Site
                      {
                        OFFSET -0.0181 -0.0122 0.0222
                      }
                    }
                  }
                }
                JOINT rCarpal1
                {
                  OFFSET -0.9571 1.114 1.7695
                  CHANNELS 6 Xposition Yposition Zposition Zrotation Xrotation Yrotation
                  JOINT rIndex1
                  {
                    OFFSET -4.1246 0.487 4.1451
                    CHANNELS 6 Xposition Yposition Zposition Zrotation Xrotation Yrotation
                    JOINT rIndex2
                    {
                      OFFSET -3.4052 -1.454 2.7682
                      CHANNELS 6 Xposition Yposition Zposition Zrotation Xrotation Yrotation
                      JOINT rIndex2_End
                      {
                        OFFSET -1.4531 -1.795 1.2713
                        CHANNELS 6 Xposition Yposition Zposition Zrotation Xrotation Yrotation
                        End Site
                        {
                          OFFSET -0.0145 -0.018 0.0127
                        }
                      }
                    }
                  }
                  JOINT rMid1
                  {
                    OFFSET -5.6954 0.21 2.1184
                    CHANNELS 6 Xposition Yposition Zposition Zrotation Xrotation Yrotation
                    JOINT rMid2
                    {
                      OFFSET -3.9766 -1.54 2.3863
                      CHANNELS 6 Xposition Yposition Zposition Zrotation Xrotation Yrotation
                      JOINT rMid2_End
                      {
                        OFFSET -1.4042 -1.926 1.125
                        CHANNELS 6 Xposition Yposition Zposition Zrotation Xrotation Yrotation
                        End Site
                        {
                          OFFSET -0.014 -0.0193 0.0113
                        }
                      }
                    }
                  }
                }
                JOINT rCarpal2
                {
                  OFFSET -2.0956 0.66 -0.3894
                  CHANNELS 6 Xposition Yposition Zposition Zrotation Xrotation Yrotation
                  JOINT rRing1
                  {
                    OFFSET -5.0395 -0.09 2.4971
                    CHANNELS 6 Xposition Yposition Zposition Zrotation Xrotation Yrotation
                    JOINT rRing2
                    {
                      OFFSET -3.7921 -1.552 1.4806
                      CHANNELS 6 Xposition Yposition Zposition Zrotation Xrotation Yrotation
                      JOINT rRing2_End
                      {
                        OFFSET -1.4655 -1.808 0.9609
                        CHANNELS 6 Xposition Yposition Zposition Zrotation Xrotation Yrotation
                        End Site
                        {
                          OFFSET -0.0147 -0.0181 0.0096
                        }
                      }
                    }
                  }
                  JOINT rPinky1
                  {
                    OFFSET -4.9141 -1.269 0.3592
                    CHANNELS 6 Xposition Yposition Zposition Zrotation Xrotation Yrotation
                    JOINT rPinky2
                    {
                      OFFSET -3.1477 -1.685 0.8462
                      CHANNELS 6 Xposition Yposition Zposition Zrotation Xrotation Yrotation
                      JOINT rPinky2_End
                      {
                        OFFSET -0.8055 -1.585 0.7955
                        CHANNELS 6 Xposition Yposition Zposition Zrotation Xrotation Yrotation
                        End Site
                        {
                          OFFSET -0.0081 -0.0158 0.008
                        }
                      }
                    }
                  }
                }
              }
            }
          }
        }
      }
    }
  }
  JOINT lThigh
  {
    OFFSET 8.367 -8.2066 0.5982
    CHANNELS 6 Xposition Yposition Zposition Zrotation Xrotation Yrotation
    JOINT lShin
    {
      OFFSET 2.1923 -43.463 -0.4932
      CHANNELS 6 Xposition Yposition Zposition Zrotation Xrotation Yrotation
      JOINT lFoot
      {
        OFFSET 0.7333 -45.8593 -2.6451
        CHANNELS 6 Xposition Yposition Zposition Zrotation Xrotation Yrotation
        End Site
        {
          OFFSET 2.6618 -4.2699 12.3931
        }
      }
    }
  }
  JOINT rThigh
  {
    OFFSET -8.367 -8.2066 0.5982
    CHANNELS 6 Xposition Yposition Zposition Zrotation Xrotation Yrotation
    JOINT rShin
    {
      OFFSET -2.1923 -43.463 -0.4931
      CHANNELS 6 Xposition Yposition Zposition Zrotation Xrotation Yrotation
      JOINT rFoot
      {
        OFFSET -0.7333 -45.8593 -2.6451
        CHANNELS 6 Xposition Yposition Zposition Zrotation Xrotation Yrotation
        End Site
        {
          OFFSET -2.6618 -4.2699 12.3931
        }
      }
    }
  }
}
MOTION
Frames:	4
Frame Time:	0.0333333
-7.37572 18.8815 58.7428 -180 84.5029 -180 0 -1.186 -1.5018 -0.127065 -1.95726 -0.416484 0 9.964 0.2134 -0.268606 -3.91354 -0.838045 0 13.134 -3.2573 -0.268606 -3.91356 -0.838045 0 20.686 -1.6905 -4.30724e-005 -36.2284 -3.74609e-005 1.77636e-015 7.238 -0.1237 1.52169e-007 -15.0017 -3.14275e-008 1.7069 20.075 5.0056 -0.759433 -13.9667 -26.3611 13.6458 -0.047 -4.849 8.52212 -1.62791 -14.3054 28.3255 -0.9759 2.2888 31.8833 -22.4602 -18.5119 22.1583 -0.53 10.8316 10.034 -15.5046 2.45458 0.786 0.112 2.5817 -4.77083e-015 -5.56597e-015 3.18055e-015 0.3601 -0.878 4.2331 -3.18055e-015 -5.56597e-015 -3.18055e-015 1.8127 -1.216 2.2227 -3.18055e-015 -4.77083e-015 -0 0.9571 1.114 1.7695 -1.59028e-015 -7.95139e-016 3.18055e-015 4.1246 0.487 4.1451 1.59028e-015 4.77083e-015 -0 3.4052 -1.454 2.7682 -4.77083e-015 -4.77083e-015 -0 1.4531 -1.795 1.2713 -3.18055e-015 -5.56597e-015 -0 5.6954 0.21 2.1184 1.59028e-015 4.77083e-015 -0 3.9766 -1.54 2.3863 -4.77083e-015 -4.77083e-015 -0 1.4042 -1.926 1.125 -3.18055e-015 -5.56597e-015 -0 2.0956 0.66 -0.3894 -1.59028e-015 -7.95139e-016 3.18055e-015 5.0395 -0.09 2.4971 1.59028e-015 4.77083e-015 -0 3.7921 -1.552 1.4806 -4.77083e-015 -4.77083e-015 -0 1.4655 -1.808 0.9609 -3.18055e-015 -5.56597e-015 -0 4.9141 -1.269 0.3591 1.59028e-015 4.77083e-015 -0 3.1477 -1.685 0.8462 -4.77083e-015 -4.77083e-015 -0 0.8055 -1.585 0.7955 -3.18055e-015 -5.56597e-015 -0 -1.7069 20.075 5.0056 1.10218 -14.399 26.4033 -13.6458 -0.047 -4.849 -8.82609 -1.72116 15.7805 -28.3255 -0.9759 2.2888 -29.6634 -19.323 19.9772 -22.1583 -0.53 10.8316 -10.1953 -15.0312 -4.61546 -0.786 0.112 2.5817 -3.18055e-015 -1.11319e-014 3.18055e-015 -0.3601 -0.878 4.2331 -5.73808e-031 -1.03368e-014 -3.18055e-015 -1.8127 -1.216 2.2227 3.18055e-015 -9.54166e-015 -3.18055e-015 -0.9571 1.114 1.7695 -3.18055e-015 -7.95139e-016 -0 -4.1246 0.487 4.1451 -9.54166e-015 -7.95139e-016 3.18055e-015 -3.4052 -1.454 2.7682 7.06225e-031 -1.27222e-014 3.18055e-015 -1.4531 -1.795 1.2713 -3.18055e-015 -1.11319e-014 -0 -5.6954 0.21 2.1184 -9.54166e-015 -7.95139e-016 3.18055e-015 -3.9766 -1.54 2.3863 7.06225e-031 -1.27222e-014 3.18055e-015 -1.4042 -1.926 1.125 -3.18055e-015 -1.11319e-014 -0 -2.0956 0.66 -0.3894 -3.18055e-015 -7.95139e-016 -0 -5.0395 -0.09 2.4971 -9.54166e-015 -7.95139e-016 3.18055e-015 -3.7921 -1.552 1.4806 7.06225e-031 -1.27222e-014 3.18055e-015 -1.4655 -1.808 0.9609 -3.18055e-015 -1.11319e-014 -0 -4.9141 -1.269 0.3592 -9.54166e-015 -7.95139e-016 3.18055e-015 -3.1477 -1.685 0.8462 7.06225e-031 -1.27222e-014 3.18055e-015 -0.8055 -1.585 0.7955 -3.18055e-015 -1.11319e-014 -0 8.367 -8.2066 0.5982 100.225 -38.0022 110.664 2.1923 -43.463 -0.4932 40.4181 77.4598 -47.2929 0.7333 -45.8593 -2.6451 46.2021 33.655 -69.9985 -8.367 -8.2066 0.5982 -100.185 -37.6881 -110.903 -2.1923 -43.463 -0.4931 -40.5592 77.4339 47.4348 -0.7333 -45.8593 -2.6451 -46.6092 33.4467 70.2762 
-7.3758 18.9518 58.712 -180 84.0016 -180 0 -1.186 -1.5018 -0.125687 -2.16173 -0.417576 0 9.964 0.2134 -0.267436 -4.32249 -0.840799 1.77636e-015 13.134 -3.2573 -0.267436 -4.32251 -0.8408 1.77636e-015 20.686 -1.6905 -1.23982e-006 -35.9519 7.04112e-006 0 7.238 -0.1237 -8.70654e-008 -15.0017 -1.03317e-007 1.7069 20.075 5.0056 -1.0311 -13.6505 -26.3156 13.6458 -0.047 -4.849 8.52213 -1.62789 -14.3054 28.3255 -0.9759 2.2888 31.993 -22.552 -18.665 22.1583 -0.53 10.8316 9.82209 -15.2508 2.4026 0.786 0.112 2.5817 -3.18055e-015 -2.38542e-015 -3.18055e-015 0.3601 -0.878 4.2331 -1.59028e-015 -1.59028e-015 -3.18055e-015 1.8127 -1.216 2.2227 -8.82781e-032 -1.59028e-015 -3.18055e-015 0.9571 1.114 1.7695 -1.59028e-015 -7.95139e-016 -3.18055e-015 4.1246 0.487 4.1451 1.59028e-015 7.95139e-015 -0 3.4052 -1.454 2.7682 -4.77083e-015 -3.18055e-015 6.36111e-015 1.4531 -1.795 1.2713 -4.77083e-015 0 3.18055e-015 5.6954 0.21 2.1184 1.59028e-015 7.95139e-015 -0 3.9766 -1.54 2.3863 -4.77083e-015 -3.18055e-015 6.36111e-015 1.4042 -1.926 1.125 -4.77083e-015 0 3.18055e-015 2.0956 0.66 -0.3894 -1.59028e-015 -7.95139e-016 -3.18055e-015 5.0395 -0.09 2.4971 1.59028e-015 7.95139e-015 -0 3.7921 -1.552 1.4806 -4.77083e-015 -3.18055e-015 6.36111e-015 1.4655 -1.808 0.9609 -4.77083e-015 0 3.18055e-015 4.9141 -1.269 0.3591 1.59028e-015 7.95139e-015 -0 3.1477 -1.685 0.8462 -4.77083e-015 -3.18055e-015 6.36111e-015 0.8055 -1.585 0.7955 -4.77083e-015 0 3.18055e-015 -1.7069 20.075 5.0056 1.38572 -14.0615 26.3278 -13.6458 -0.047 -4.849 -8.83215 -1.72273 15.8028 -28.3255 -0.9759 2.2888 -29.7578 -19.4167 20.1424 -22.1583 -0.53 10.8316 -9.99666 -14.7837 -4.54543 -0.786 0.112 2.5817 -2.20695e-031 -3.97569e-015 -3.18055e-015 -0.3601 -0.878 4.2331 6.36111e-015 -3.97569e-015 -0 -1.8127 -1.216 2.2227 -3.18055e-015 -4.77083e-015 3.18055e-015 -0.9571 1.114 1.7695 -4.41391e-032 -7.95139e-016 -3.18055e-015 -4.1246 0.487 4.1451 3.18055e-015 -2.22639e-014 3.18055e-015 -3.4052 -1.454 2.7682 1.76556e-031 -3.18055e-015 3.18055e-015 -1.4531 -1.795 1.2713 3.18055e-015 -2.38542e-015 6.36111e-015 -5.6954 0.21 2.1184 3.18055e-015 -2.22639e-014 3.18055e-015 -3.9766 -1.54 2.3863 1.76556e-031 -3.18055e-015 3.18055e-015 -1.4042 -1.926 1.125 3.18055e-015 -2.38542e-015 6.36111e-015 -2.0956 0.66 -0.3894 -4.41391e-032 -7.95139e-016 -3.18055e-015 -5.0395 -0.09 2.4971 3.18055e-015 -2.22639e-014 3.18055e-015 -3.7921 -1.552 1.4806 1.76556e-031 -3.18055e-015 3.18055e-015 -1.4655 -1.808 0.9609 3.18055e-015 -2.38542e-015 6.36111e-015 -4.9141 -1.269 0.3592 3.18055e-015 -2.22639e-014 3.18055e-015 -3.1477 -1.685 0.8462 1.76556e-031 -3.18055e-015 3.18055e-015 -0.8055 -1.585 0.7955 3.18055e-015 -2.38542e-015 6.36111e-015 8.367 -8.2066 0.5982 100.753 -38.4246 110.991 2.1923 -43.463 -0.4932 40.4165 77.4577 -47.2716 0.7333 -45.8593 -2.6451 45.6448 34.0944 -69.5805 -8.367 -8.2066 0.5982 -100.712 -38.126 -111.216 -2.1923 -43.463 -0.4931 -40.5576 77.4317 47.4129 -0.7333 -45.8593 -2.6451 -46.0343 33.8978 69.8463 
-7.37589 19.0221 58.681 -180 83.5004 -180 0 -1.186 -1.5018 -0.124303 -2.36603 -0.418628 -8.88178e-016 9.964 0.2134 -0.266262 -4.73109 -0.843478 0 13.134 -3.2573 -0.266263 -4.73109 -0.843478 0 20.686 -1.6905 -4.21171e-005 -35.6763 -2.18458e-005 0 7.238 -0.1237 4.77378e-007 -15.0017 2.81603e-007 1.7069 20.075 5.0056 -1.30269 -13.3348 -26.2686 13.6458 -0.047 -4.849 8.52212 -1.62791 -14.3054 28.3255 -0.9759 2.2888 32.1024 -22.644 -18.8181 22.1583 -0.53 10.8316 9.61069 -14.9969 2.35173 0.786 0.112 2.5817 7.27395e-008 8.89945e-007 -2.39524e-006 0.3601 -0.878 4.2331 -4.77083e-015 7.15625e-015 3.18055e-015 1.8127 -1.216 2.2227 -3.18055e-015 7.15625e-015 -0 0.9571 1.114 1.7695 1.59028e-015 7.95139e-016 -3.18055e-015 4.1246 0.487 4.1451 7.27395e-008 8.89945e-007 -2.39524e-006 3.4052 -1.454 2.7682 -4.77083e-015 7.15625e-015 3.18055e-015 1.4531 -1.795 1.2713 -6.36111e-015 8.74653e-015 -0 5.6954 0.21 2.1184 7.27395e-008 8.89945e-007 -2.39524e-006 3.9766 -1.54 2.3863 -4.77083e-015 7.15625e-015 3.18055e-015 1.4042 -1.926 1.125 -6.36111e-015 8.74653e-015 -0 2.0956 0.66 -0.3894 1.59028e-015 7.95139e-016 -3.18055e-015 5.0395 -0.09 2.4971 7.27395e-008 8.89945e-007 -2.39524e-006 3.7921 -1.552 1.4806 -4.77083e-015 7.15625e-015 3.18055e-015 1.4655 -1.808 0.9609 -6.36111e-015 8.74653e-015 -0 4.9141 -1.269 0.3591 7.27395e-008 8.89945e-007 -2.39524e-006 3.1477 -1.685 0.8462 -4.77083e-015 7.15625e-015 3.18055e-015 0.8055 -1.585 0.7955 -6.36111e-015 8.74653e-015 -0 -1.7069 20.075 5.0056 1.66928 -13.7246 26.2505 -13.6458 -0.047 -4.849 -8.83822 -1.72431 15.8251 -28.3255 -0.9759 2.2888 -29.8521 -19.5107 20.3076 -22.1583 -0.53 10.8316 -9.7986 -14.536 -4.47637 -0.786 0.112 2.5817 3.18055e-015 -1.59028e-015 3.18055e-015 -0.3601 -0.878 4.2331 3.18055e-015 -7.95139e-016 3.18055e-015 -1.8127 -1.216 2.2227 6.36111e-015 0 6.36111e-015 -0.9571 1.114 1.7695 3.18055e-015 0 -0 -4.1246 0.487 4.1451 -3.18055e-015 7.95139e-016 9.54166e-015 -3.4052 -1.454 2.7682 3.18055e-015 -7.95139e-016 9.54166e-015 -1.4531 -1.795 1.2713 -3.18055e-015 -2.38542e-015 3.18055e-015 -5.6954 0.21 2.1184 -3.18055e-015 7.95139e-016 9.54166e-015 -3.9766 -1.54 2.3863 3.18055e-015 -7.95139e-016 9.54166e-015 -1.4042 -1.926 1.125 -3.18055e-015 -2.38542e-015 3.18055e-015 -2.0956 0.66 -0.3894 3.18055e-015 0 -0 -5.0395 -0.09 2.4971 -3.18055e-015 7.95139e-016 9.54166e-015 -3.7921 -1.552 1.4806 3.18055e-015 -7.95139e-016 9.54166e-015 -1.4655 -1.808 0.9609 -3.18055e-015 -2.38542e-015 3.18055e-015 -4.9141 -1.269 0.3592 -3.18055e-015 7.95139e-016 9.54166e-015 -3.1477 -1.685 0.8462 3.18055e-015 -7.95139e-016 9.54166e-015 -0.8055 -1.585 0.7955 -3.18055e-015 -2.38542e-015 3.18055e-015 8.367 -8.2066 0.5982 101.286 -38.8439 111.324 2.1923 -43.463 -0.4932 40.4137 77.4554 -47.2495 0.7333 -45.8593 -2.6451 45.0806 34.5308 -69.1555 -8.367 -8.2066 0.5982 -101.245 -38.5611 -111.536 -2.1923 -43.463 -0.4931 -40.5548 77.4294 47.3903 -0.7333 -45.8593 -2.6451 -45.452 34.3457 69.4089 
-7.37599 19.0925 58.6498 -180 82.9993 -180 0 -1.186 -1.5018 -0.122914 -2.57012 -0.419646 0 9.964 0.2134 -0.26509 -5.13925 -0.846094 0 13.134 -3.2573 -0.26509 -5.13926 -0.846094 1.77636e-015 20.686 -1.6905 -1.37714e-005 -35.4017 -9.01211e-006 -1.77636e-015 7.238 -0.1237 -4.00386e-007 -15.0017 2.66772e-008 1.7069 20.075 5.0056 -1.57416 -13.0193 -26.2202 13.6458 -0.047 -4.849 8.52213 -1.62792 -14.3054 28.3255 -0.9759 2.2888 32.2117 -22.7363 -18.971 22.1583 -0.53 10.8316 9.39979 -14.7428 2.30187 0.786 0.112 2.5817 -1.81947e-007 -9.89344e-007 -1.6627e-006 0.3601 -0.878 4.2331 -1.18316e-006 1.89306e-007 5.64167e-010 1.8127 -1.216 2.2227 -6.86235e-007 -4.96929e-007 -7.41256e-008 0.9571 1.114 1.7695 4.41391e-032 7.95139e-016 -3.18055e-015 4.1246 0.487 4.1451 -1.81947e-007 -9.89344e-007 -1.6627e-006 3.4052 -1.454 2.7682 -1.18316e-006 1.89306e-007 5.64164e-010 1.4531 -1.795 1.2713 -6.86235e-007 -4.96929e-007 -7.41256e-008 5.6954 0.21 2.1184 -1.81947e-007 -9.89344e-007 -1.6627e-006 3.9766 -1.54 2.3863 -1.18316e-006 1.89306e-007 5.64164e-010 1.4042 -1.926 1.125 -6.86235e-007 -4.96929e-007 -7.41256e-008 2.0956 0.66 -0.3894 4.41391e-032 7.95139e-016 -3.18055e-015 5.0395 -0.09 2.4971 -1.81947e-007 -9.89344e-007 -1.6627e-006 3.7921 -1.552 1.4806 -1.18316e-006 1.89306e-007 5.64164e-010 1.4655 -1.808 0.9609 -6.86235e-007 -4.96929e-007 -7.41256e-008 4.9141 -1.269 0.3591 -1.81947e-007 -9.89344e-007 -1.6627e-006 3.1477 -1.685 0.8462 -1.18316e-006 1.89306e-007 5.64164e-010 0.8055 -1.585 0.7955 -6.86235e-007 -4.96929e-007 -7.41256e-008 -1.7069 20.075 5.0056 1.95287 -13.3882 26.1717 -13.6458 -0.047 -4.849 -8.84428 -1.72588 15.8475 -28.3255 -0.9759 2.2888 -29.9461 -19.605 20.4727 -22.1583 -0.53 10.8316 -9.60105 -14.2881 -4.40823 -0.786 0.112 2.5817 1.49559e-006 3.90578e-007 -2.41406e-006 -0.3601 -0.878 4.2331 -3.53113e-031 -3.18055e-015 -6.36111e-015 -1.8127 -1.216 2.2227 -4.41391e-032 -7.95139e-016 -3.18055e-015 -0.9571 1.114 1.7695 0 7.95139e-016 -0 -4.1246 0.487 4.1451 1.49559e-006 3.90578e-007 -2.41406e-006 -3.4052 -1.454 2.7682 -6.36111e-015 -7.95139e-016 -3.18055e-015 -1.4531 -1.795 1.2713 -3.18055e-015 0 -0 -5.6954 0.21 2.1184 1.49559e-006 3.90578e-007 -2.41406e-006 -3.9766 -1.54 2.3863 -6.36111e-015 -7.95139e-016 -3.18055e-015 -1.4042 -1.926 1.125 -3.18055e-015 0 -0 -2.0956 0.66 -0.3894 0 7.95139e-016 -0 -5.0395 -0.09 2.4971 1.49559e-006 3.90578e-007 -2.41406e-006 -3.7921 -1.552 1.4806 -6.36111e-015 -7.95139e-016 -3.18055e-015 -1.4655 -1.808 0.9609 -3.18055e-015 0 -0 -4.9141 -1.269 0.3592 1.49559e-006 3.90578e-007 -2.41406e-006 -3.1477 -1.685 0.8462 -6.36111e-015 -7.95139e-016 -3.18055e-015 -0.8055 -1.585 0.7955 -3.18055e-015 0 -0 8.367 -8.2066 0.5982 101.826 -39.2603 111.663 2.1923 -43.463 -0.4932 40.4092 77.4526 -47.2263 0.7333 -45.8593 -2.6451 44.5093 34.9642 -68.7234 -8.367 -8.2066 0.5982 -101.785 -38.9931 -111.862 -2.1923 -43.463 -0.4931 -40.5508 77.4267 47.367 -0.7333 -45.8593 -2.6451 -44.8624 34.7903 68.964 
